<svg width="700" height="150" xmlns="http://www.w3.org/2000/svg">
 <!-- Created with Method Draw - http://github.com/duopixel/Method-Draw/ -->
 <g>
  <title>background</title>
  <rect fill="#fff" id="canvas_background" height="152" width="702" y="-1" x="-1"/>
  <g display="none" overflow="visible" y="0" x="0" height="100%" width="100%" id="canvasGrid">
   <rect fill="url(#gridpattern)" stroke-width="0" y="0" x="0" height="100%" width="100%"/>
  </g>
 </g>
 <g>
  <title>Layer 1</title>
  <rect id="svg_1" height="150" width="50" y="0" x="0" stroke-width="3" stroke="#000" fill="#fff"/>
  <rect id="svg_3" height="150" width="50" y="0" x="50" stroke-width="3" stroke="#000" fill="#fff"/>
  <rect y="0" id="svg_4" height="150" width="50" x="100" stroke-width="3" stroke="#000" fill="#fff"/>
  <rect y="0" id="svg_5" height="150" width="50" x="150" stroke-width="3" stroke="#000" fill="#fff"/>
  <rect id="svg_10" height="150" width="50" y="0" x="200" stroke-width="3" stroke="#000" fill="#fff"/>
  <rect id="svg_11" height="150" width="50" y="0" x="250" stroke-width="3" stroke="#000" fill="#fff"/>
  <rect y="0" id="svg_12" height="150" width="50" x="300" stroke-width="3" stroke="#000" fill="#fff"/>
  <rect y="0" id="svg_13" height="150" width="50" x="350" stroke-width="3" stroke="#000" fill="#fff"/>
  <rect id="svg_14" height="150" width="50" y="0" x="400" stroke-width="3" stroke="#000" fill="#fff"/>
  <rect id="svg_15" height="150" width="50" y="0" x="450" stroke-width="3" stroke="#000" fill="#fff"/>
  <rect y="0" id="svg_16" height="150" width="50" x="500" stroke-width="3" stroke="#000" fill="#fff"/>
  <rect y="0" id="svg_17" height="150" width="50" x="550" stroke-width="3" stroke="#000" fill="#fff"/>
  <rect id="svg_18" height="150" width="50" y="0" x="600" stroke-width="3" stroke="#000" fill="#fff"/>
  <rect id="svg_19" height="150" width="50" y="0" x="650" stroke-width="3" stroke="#000" fill="#fff"/>
  <rect y="0" id="svg_20" height="150" width="50" x="700" stroke-width="3" stroke="#000" fill="#fff"/>
  <rect y="0" id="svg_21" height="150" width="50" x="750" stroke-width="3" stroke="#000" fill="#fff"/>
  <rect id="svg_22" height="106" width="33" y="0" x="35" stroke-opacity="null" stroke-width="3" stroke="#000" fill="#000000"/>
  <rect id="svg_23" height="106" width="33" y="0" x="85" stroke-opacity="null" stroke-width="3" stroke="#000" fill="#000000"/>
  <rect id="svg_24" height="1" width="1" y="-180.5625" x="820.5" stroke-opacity="null" stroke-width="3" stroke="#000" fill="#000000"/>
  <rect id="svg_26" height="106" width="33" y="0" x="185" stroke-opacity="null" stroke-width="3" stroke="#000" fill="#000000"/>
  <rect id="svg_27" height="106" width="33" y="0" x="235" stroke-opacity="null" stroke-width="3" stroke="#000" fill="#000000"/>
  <rect id="svg_28" height="106" width="33" y="0" x="285" stroke-opacity="null" stroke-width="3" stroke="#000" fill="#000000"/>
  <rect id="svg_29" height="106" width="33" y="0" x="385" stroke-opacity="null" stroke-width="3" stroke="#000" fill="#000000"/>
  <rect id="svg_30" height="106" width="33" y="0" x="435" stroke-opacity="null" stroke-width="3" stroke="#000" fill="#000000"/>
  <rect id="svg_31" height="106" width="33" y="0" x="535" stroke-opacity="null" stroke-width="3" stroke="#000" fill="#000000"/>
  <rect id="svg_32" height="106" width="33" y="0" x="585" stroke-opacity="null" stroke-width="3" stroke="#000" fill="#000000"/>
  <rect id="svg_33" height="106" width="33" y="0" x="635" stroke-opacity="null" stroke-width="3" stroke="#000" fill="#000000"/>
 </g>
</svg>